# xmcd CD database file
# Copyright (C) 1995-1998 Ti Kan
#
# Track frame offsets:
#	180
#	23887
#	41361
#	61719
#	87944
#	104305
#	127399
#	149407
#	168091
#	187037
#	207483
#	231907
#	250262
#	279447
#	304689
#	335684
#
# Disc length: 4704 seconds
#
# Revision: 1
# Processed by: cddbd v1.5.1PL0 Copyright (c) Steve Scherf et al.
# Submitted via: CDex 1.30Release
#
DISCID=e8125e10
DTITLE=Buddaheads - Howlin' At The Moon
DYEAR=1900
DGENRE=Blues
TTITLE0=Long Way Down
TTITLE1=Nothing To Lose
TTITLE2=Howlin' At The Moon
TTITLE3=Crawlin' Moon
TTITLE4=Showdown
TTITLE5=911
TTITLE6=Better Day
TTITLE7=Train Train
TTITLE8=Mississippi Queen
TTITLE9=Company Graveyard
TTITLE10=When The Blues Catch Up With You
TTITLE11=State of Grace
TTITLE12=Dance Maria
TTITLE13=Every Now and Then
TTITLE14=Alana
TTITLE15=Don't Cry
EXTD=ID3G:   0
EXTT0=
EXTT1=
EXTT2=
EXTT3=
EXTT4=
EXTT5=
EXTT6=
EXTT7=
EXTT8=
EXTT9=
EXTT10=
EXTT11=
EXTT12=
EXTT13=
EXTT14=
EXTT15=
PLAYORDER=
